<?xml version="1.0" encoding="utf-8"?>
<!DOCTYPE svg PUBLIC "-//W3C//DTD SVG 1.0//EN" "http://www.w3.org/TR/2001/REC-SVG-20010904/DTD/svg10.dtd">
<svg version="1.0" xmlns="http://www.w3.org/2000/svg" width="500px" height="500px" viewBox="0 0 500 500" preserveAspectRatio="xMidYMid meet">
 <g fill="#ffffff">
  <path d="M0 250 l0 -250 250 0 250 0 0 250 0 250 -250 0 -250 0 0 -250z m209.65 228.75 c9.20 -2.80 15.85 -11.25 15.85 -20.20 0 -1.80 0.20 -3.60 0.40 -3.95 0.35 -0.50 8 -0.60 36.65 -0.50 l36.20 0.15 0.30 4 c0.15 2.20 0.55 4.85 0.90 5.90 2.40 7 8.20 12.55 15.60 14.80 7.40 2.30 17.40 -2.50 22.15 -10.60 1.90 -3.20 2.40 -5 2.75 -9.85 l0.30 -4.25 11.05 -0.25 11 -0.25 3.75 -1.85 c5.05 -2.55 9.05 -6.50 11.05 -10.90 0.65 -1.40 3.90 -12.05 5.55 -18.25 0.25 -1 2.80 -9.95 4.80 -17.10 0.60 -2 1.05 -4.05 1.05 -4.50 0 -0.50 0.30 -1.45 0.65 -2.15 0.40 -0.70 0.95 -2.40 1.30 -3.75 0.50 -2.10 4.20 -15.40 6.80 -24.50 1.75 -6.10 4.30 -15.15 6.50 -23 1.30 -4.65 2.95 -10.40 3.60 -12.75 0.70 -2.35 1.45 -4.90 1.65 -5.75 0.20 -0.80 0.90 -3.30 1.50 -5.50 0.60 -2.20 1.30 -4.65 1.50 -5.50 0.20 -0.80 1.30 -4.75 2.45 -8.75 4.10 -14.10 4.45 -15.40 8.80 -31 2.05 -7.35 2.20 -7.90 4.45 -15.75 1.80 -6.40 5.65 -20 6.35 -22.50 0.20 -0.80 0.85 -3.05 1.40 -5 0.55 -1.90 1.55 -5.65 2.25 -8.25 0.70 -2.60 1.50 -5.30 1.75 -6 0.25 -0.70 0.75 -2.30 1.05 -3.60 l0.65 -2.40 14.80 0 c8.15 0 15.80 -0.25 17 -0.55 4.55 -1.05 8.90 -5.40 10.10 -10.10 1.15 -4.75 -2.30 -10.70 -7.75 -13.35 l-3.20 -1.50 -21.05 0 c-20.45 0 -21.15 0.05 -23.20 1.05 -6.25 3.15 -7.10 4.65 -11.10 19.20 -0.35 1.40 -1.95 6.90 -3.45 12.25 -1.55 5.35 -3.10 11 -3.55 12.50 -0.40 1.50 -1.35 4.80 -2.05 7.25 -0.70 2.50 -1.50 5.40 -1.80 6.50 -0.25 1.10 -0.70 2.15 -1.05 2.35 -0.35 0.20 -9.10 0.40 -19.45 0.40 l-18.80 0 -4.70 5.30 c-2.55 2.95 -9.05 10.35 -14.40 16.40 -5.35 6.10 -24.05 27.40 -41.55 47.35 -17.50 19.90 -32.75 37.05 -33.95 38.15 -3.60 3.20 -6.70 4.30 -12.50 4.30 -7.80 0 -10.35 -1.30 -20 -10.20 -1.50 -1.40 -8.50 -7.60 -15.50 -13.80 -12.40 -10.95 -41.65 -36.95 -79.95 -70.90 l-18.65 -16.60 -17.20 0 c-18.75 0 -19.70 0.10 -21.40 2.80 -1.35 2 -1.15 3.15 1.70 11.20 1.40 4 3.25 9.10 4.05 11.40 0.80 2.25 2.10 5.95 2.95 8.25 0.80 2.25 1.95 5.55 2.50 7.35 0.60 1.80 1.25 3.70 1.50 4.25 0.25 0.55 1 2.70 1.70 4.75 1.40 4.15 2.95 8.60 6.80 19.50 1.40 4 3.15 8.95 3.80 11 0.70 2.05 1.45 4.20 1.70 4.75 0.25 0.55 1.40 3.80 2.55 7.25 1.15 3.45 2.25 6.50 2.45 6.75 0.20 0.30 0.50 1.05 0.60 1.75 0.25 1.05 2.70 8.10 6.20 17.75 0.40 1.10 1.70 4.95 2.95 8.50 5.15 15.20 5.55 16 8 17.40 0.75 0.45 28.45 0.65 108.80 0.85 l107.75 0.25 2.95 1.50 c6.45 3.30 9.20 11.40 6.70 19.70 -0.85 2.80 -4.35 6.65 -7.35 8.15 l-2.35 1.15 -98 0.25 c-93.30 0.25 -98.10 0.30 -99.65 1.15 -2.50 1.35 -5.50 4.25 -6.90 6.65 -1.85 3.10 -1.85 7.80 0 10.90 1.60 2.75 3.90 5 6.55 6.45 1.90 1.05 2.70 1.10 15.40 1.25 l13.35 0.15 0 2.35 c0 3.25 1.20 8.60 2.50 11.15 2.40 4.70 8.70 9.85 13.75 11.25 2.90 0.80 6.65 0.80 9.40 -0.05z m-128.15 -83.45 c0 -0.10 -1.05 -2.05 -2.35 -4.35 -2.45 -4.50 -9.15 -18.20 -9.15 -18.80 0 -0.25 -0.30 -0.95 -0.65 -1.65 -0.35 -0.70 -1.05 -2.35 -1.55 -3.75 -0.50 -1.35 -1.30 -3.40 -1.80 -4.50 -0.85 -1.90 -1.90 -5.20 -5 -16 -1.80 -6.40 -3.70 -15.05 -4.75 -21.75 -0.45 -2.90 -1 -6.60 -1.30 -8.25 -0.25 -1.65 -0.75 -8.35 -1.05 -14.85 -2.30 -47.20 9.60 -90.35 35.50 -128.65 8.75 -12.95 20.55 -26.40 32.65 -37.20 14.35 -12.80 28.80 -22.50 46.20 -31.05 10.10 -4.95 10.80 -5.25 16.75 -7.50 2.35 -0.85 4.95 -1.85 5.75 -2.20 0.85 -0.35 2.85 -1.05 4.50 -1.55 1.65 -0.50 3.90 -1.20 5 -1.55 8.50 -2.85 20.95 -5.35 36.25 -7.25 10.75 -1.40 34.50 -1.65 44 -0.50 27.80 3.30 48.55 9.10 70.75 19.80 5.85 2.85 15.40 8.10 17.75 9.75 0.75 0.55 1.55 1 1.70 1 0.15 0 1.45 0.80 2.80 1.75 1.45 1 2.80 1.65 3.15 1.45 0.65 -0.40 8.30 -6.75 11.90 -9.95 1.25 -1.10 3.75 -3.10 5.50 -4.50 1.75 -1.35 4.90 -3.95 6.95 -5.75 2.05 -1.80 4.60 -3.95 5.65 -4.75 l1.90 -1.50 -3.15 -2.55 c-14.75 -11.75 -36.80 -24.85 -52.65 -31.30 -1.35 -0.55 -2.95 -1.20 -3.50 -1.40 -1.80 -0.75 -11.45 -4.35 -13.75 -5.15 -4.30 -1.55 -15.25 -4.60 -21.50 -6.05 -11.40 -2.65 -21.15 -4.10 -35 -5.35 -8.35 -0.75 -32.55 -0.30 -39.50 0.75 -2.90 0.40 -7.85 1.10 -11 1.55 -11.50 1.60 -27.60 5.65 -41 10.35 -2.35 0.80 -4.70 1.65 -5.25 1.90 -0.55 0.25 -2.45 1 -4.25 1.65 -8.05 3 -26.15 12.10 -34.75 17.50 -5.90 3.75 -13.75 9.20 -17 11.80 -1.90 1.55 -4.60 3.55 -6 4.50 -7.85 5.35 -30.65 28.05 -36.60 36.50 -1.30 1.80 -3.60 4.90 -5.15 6.80 -3.60 4.45 -8.90 12.40 -13.20 19.75 -1.80 3.15 -3.55 6.10 -3.80 6.50 -1.60 2.45 -9.75 19.70 -11.75 24.75 -1.25 3.30 -2.55 6.45 -2.80 7 -0.25 0.55 -1.35 3.70 -2.40 7.05 -6.40 19.45 -9.85 37.60 -11.35 59.80 -0.75 10.90 -0.75 12.85 -0.05 23.75 0.80 11.30 1.80 20.35 2.90 25.90 3.55 17.85 3.50 17.75 7.80 31.75 1.55 5.10 4.65 13.60 6.40 17.75 0.40 0.85 1.05 2.50 1.55 3.70 2.70 6.75 10.65 21.80 16.35 30.95 l2.60 4.10 5.35 0 c3 0 5.40 -0.10 5.40 -0.20z m178.80 -64.65 c3.60 -1.10 5 -2.45 19.45 -18.90 6.80 -7.70 13.10 -14.80 13.95 -15.75 6.60 -7.35 42.95 -48.45 45.80 -51.75 1.95 -2.25 27.70 -31.25 32.20 -36.25 0.85 -0.95 4.15 -4.70 7.30 -8.25 3.15 -3.60 12.75 -14.35 21.25 -24 8.55 -9.60 21 -23.65 27.70 -31.25 6.70 -7.55 12.90 -14.55 13.75 -15.50 0.90 -0.95 9.55 -10.75 19.25 -21.75 9.75 -11 19.40 -21.90 21.50 -24.20 2.10 -2.30 4.10 -4.60 4.45 -5.10 0.85 -1.20 1.35 -1.20 -13.15 -0.15 l-11.50 0.85 -3.40 2.80 c-1.85 1.55 -5.05 4.15 -7.05 5.80 -2.05 1.65 -11.65 9.65 -21.35 17.80 -9.75 8.15 -20.15 16.90 -23.20 19.40 -3 2.55 -6.50 5.45 -7.75 6.50 -2.70 2.25 -32.30 26.95 -78.25 65.30 -18.40 15.35 -34.50 28.80 -35.75 29.85 -14.25 11.95 -14.15 11.90 -16.25 11.90 -2.30 0 -2.70 -0.35 -29.95 -26.50 -8.20 -7.85 -15.20 -14.40 -15.55 -14.65 -0.35 -0.20 -27.65 -0.30 -60.65 -0.25 l-60 0.15 5.35 4.75 c7.60 6.75 26.90 23.95 32.50 29 2.60 2.35 6.15 5.50 7.85 7 1.70 1.50 5.65 5.05 8.80 7.80 3.10 2.80 9.15 8.20 13.45 12 4.25 3.85 11.70 10.45 16.50 14.75 4.75 4.30 13.30 11.90 18.95 16.95 5.65 5 17.20 15.35 25.70 22.95 18.05 16.15 20.10 17.85 22.65 18.80 2.45 0.90 2.35 0.90 5.45 -0.10z"/>
 </g>
 <g fill="#ff6e14">
  <path d="M317.25 480.95 c-5.80 -0.80 -9.40 -2.55 -13.25 -6.40 -4.10 -4.15 -6.05 -8.55 -6.45 -14.80 l-0.30 -4 -34.85 -0.15 c-19.20 -0.05 -34.90 0.05 -34.95 0.25 0 0.25 -0.10 1.90 -0.20 3.80 -0.50 9.65 -6.90 17.80 -16.10 20.60 -2.90 0.90 -9.05 0.95 -12.15 0.10 -5.25 -1.40 -11.50 -6.50 -14 -11.30 -1.30 -2.55 -2.50 -7.90 -2.50 -11.15 l0 -2.35 -13.35 -0.15 c-12.70 -0.15 -13.50 -0.20 -15.40 -1.25 -2.70 -1.45 -4.95 -3.70 -6.60 -6.55 -1.25 -2.10 -1.40 -2.80 -1.35 -6.90 0 -4 0.20 -4.85 1.35 -6.80 1.45 -2.50 4.40 -5.35 6.95 -6.75 1.55 -0.85 6.35 -0.90 99.65 -1.15 l98 -0.25 2.35 -1.15 c1.30 -0.65 3.35 -2.25 4.55 -3.60 6.05 -6.70 4 -17.40 -4 -21.30 l-2.90 -1.45 -107.75 -0.25 c-80.30 -0.20 -108 -0.40 -108.75 -0.85 -2.45 -1.40 -2.85 -2.20 -8 -17.40 -1.25 -3.55 -2.55 -7.40 -2.95 -8.50 -3.50 -9.65 -5.95 -16.70 -6.20 -17.75 -0.10 -0.70 -0.40 -1.45 -0.60 -1.75 -0.20 -0.25 -1.30 -3.30 -2.45 -6.75 -1.15 -3.45 -2.30 -6.70 -2.55 -7.25 -0.25 -0.55 -1 -2.70 -1.70 -4.75 -0.65 -2.05 -2.40 -7 -3.80 -11 -3.85 -10.90 -5.40 -15.35 -6.80 -19.50 -0.70 -2.05 -1.45 -4.20 -1.70 -4.75 -0.25 -0.55 -1 -2.70 -1.70 -4.75 -1.05 -3.35 -3.20 -9.35 -7.90 -22.50 -4.85 -13.55 -5.15 -15.35 -2.95 -18.45 1.85 -2.60 3.10 -2.75 22.90 -2.70 14.60 0 18.30 0.15 19 0.70 0.90 0.70 19.15 16.90 62.90 55.70 12.10 10.75 27.85 24.70 35 31 7.15 6.35 14.25 12.65 15.75 14.05 9.05 8.35 12.40 10.20 18.50 10.20 4.20 0 7.80 -1.40 11 -4.30 1.20 -1.10 16.45 -18.25 33.95 -38.15 17.50 -19.95 36.20 -41.25 41.55 -47.30 5.35 -6.10 11.75 -13.40 14.20 -16.20 2.45 -2.80 4.80 -5.25 5.25 -5.50 0.45 -0.20 9.05 -0.35 19.15 -0.30 10.10 0.05 18.55 -0.05 18.85 -0.20 0.25 -0.20 0.70 -1.20 0.95 -2.30 0.30 -1.10 1.10 -4 1.80 -6.50 0.70 -2.45 1.65 -5.75 2.05 -7.25 0.45 -1.50 2 -7.15 3.55 -12.50 1.50 -5.35 3.10 -10.85 3.45 -12.25 4 -14.55 4.85 -16.05 11.10 -19.20 2.05 -1 2.70 -1.05 24.70 -1.05 l22.55 0 3.20 1.50 c5.45 2.60 8.60 8.10 8.05 14 -0.30 3.60 -1.50 6.20 -4.10 8.75 -3.95 4 -3.95 4 -22.05 4.15 l-16.10 0.15 -0.60 2.35 c-0.30 1.30 -0.80 2.90 -1.05 3.60 -0.25 0.70 -1.05 3.40 -1.75 6 -0.70 2.60 -1.70 6.35 -2.25 8.25 -0.55 1.95 -1.20 4.20 -1.40 5 -0.70 2.50 -4.55 16.10 -6.35 22.50 -2.25 7.85 -2.40 8.40 -4.45 15.75 -4.35 15.60 -4.70 16.90 -8.80 31 -1.15 4 -2.25 7.95 -2.45 8.75 -0.20 0.85 -0.90 3.30 -1.50 5.50 -0.60 2.20 -1.30 4.70 -1.50 5.50 -0.20 0.85 -0.95 3.40 -1.65 5.75 -0.65 2.35 -2.30 8.10 -3.60 12.75 -2.20 7.85 -4.75 16.90 -6.50 23 -2.60 9.10 -6.30 22.40 -6.80 24.50 -0.35 1.35 -0.90 3.05 -1.30 3.75 -0.35 0.70 -0.65 1.65 -0.65 2.15 0 0.45 -0.45 2.50 -1.05 4.50 -2 7.15 -4.55 16.10 -4.80 17.10 -1.65 6.20 -4.90 16.85 -5.55 18.25 -2 4.40 -6 8.35 -11.05 10.90 l-3.75 1.85 -11 0.25 -11.05 0.25 -0.30 4.25 c-0.35 4.85 -0.85 6.65 -2.75 9.85 -4.55 7.80 -13.45 12.30 -21.95 11.10z"/>
  <path d="M66.65 392.90 c-5.70 -9.15 -13.65 -24.20 -16.35 -30.95 -0.50 -1.20 -1.15 -2.85 -1.55 -3.70 -1.75 -4.15 -4.85 -12.65 -6.40 -17.75 -4.30 -14 -4.25 -13.85 -7.80 -31.75 -1.15 -5.75 -2.10 -14.25 -2.90 -26.40 -0.80 -12.10 -0.80 -13.65 0 -25.50 1.50 -22.80 4.90 -40.80 11.40 -60.55 1.05 -3.35 2.15 -6.50 2.40 -7.05 0.25 -0.55 1.55 -3.70 2.80 -7 2 -5.05 10.15 -22.30 11.75 -24.75 0.25 -0.40 2 -3.35 3.80 -6.50 4.30 -7.35 9.60 -15.30 13.20 -19.75 1.55 -1.90 3.85 -5 5.15 -6.80 5.95 -8.45 28.75 -31.15 36.60 -36.50 1.40 -0.95 4.10 -2.95 6 -4.50 3.25 -2.60 11.10 -8.05 17 -11.80 8.60 -5.40 26.70 -14.50 34.75 -17.50 1.80 -0.65 3.70 -1.40 4.25 -1.65 0.55 -0.25 2.90 -1.10 5.25 -1.90 13.40 -4.70 29.50 -8.75 41 -10.35 3.15 -0.45 8.10 -1.15 11 -1.55 6.90 -1.05 33.90 -1.50 42.50 -0.75 13.80 1.20 23.60 2.70 35 5.35 6.25 1.45 17.20 4.50 21.50 6.05 2.30 0.80 11.95 4.40 13.75 5.15 0.55 0.20 2.15 0.85 3.50 1.40 8.25 3.35 22.85 11 32 16.75 9.65 6.05 24.85 17.30 25.10 18.55 0.10 0.30 -0.85 1.30 -2.05 2.20 -1.20 0.90 -4.20 3.40 -6.65 5.50 -2.45 2.10 -5.80 4.85 -7.40 6.10 -1.60 1.25 -3.85 3.05 -4.95 4.05 -4.20 3.70 -13.05 11.05 -13.65 11.30 -0.30 0.10 -2.05 -0.80 -3.85 -2.05 -1.80 -1.25 -3.45 -2.30 -3.60 -2.30 -0.15 0 -0.95 -0.45 -1.70 -1 -2.35 -1.65 -11.90 -6.90 -17.75 -9.75 -22.20 -10.70 -43 -16.55 -70.75 -19.80 -9.30 -1.10 -30.30 -0.85 -41 0.50 -15.30 1.90 -27.70 4.40 -36.25 7.25 -1.10 0.35 -3.35 1.05 -5 1.55 -1.65 0.50 -3.65 1.20 -4.50 1.55 -0.80 0.35 -3.40 1.35 -5.75 2.20 -5.95 2.25 -6.65 2.55 -16.75 7.50 -14.85 7.30 -26.55 14.80 -39.95 25.65 -9.95 8.05 -23.65 22.15 -31.90 32.85 -29.80 38.65 -45 87.40 -42.50 136.30 0.35 6 0.80 12.30 1.05 13.95 0.30 1.65 0.85 5.35 1.30 8.25 1.05 6.70 2.95 15.35 4.75 21.75 3.10 10.80 4.15 14.10 5 16 0.50 1.10 1.30 3.15 1.80 4.50 0.50 1.40 1.20 3.05 1.55 3.75 0.35 0.70 0.65 1.40 0.65 1.65 0 0.20 1.55 3.55 3.40 7.50 3.05 6.25 5.05 10.10 9 17 l1.10 1.85 -7.90 0 -7.85 0 -2.60 -4.10z"/>
 </g>
 <g fill="#39b44a">
  <path d="M253.35 332.25 c-2.55 -0.95 -4.60 -2.65 -22.65 -18.80 -8.50 -7.60 -20.05 -17.95 -25.70 -22.95 -5.65 -5.05 -14.20 -12.65 -18.95 -16.95 -4.80 -4.30 -12.25 -10.90 -16.50 -14.75 -4.30 -3.80 -10.35 -9.20 -13.45 -12 -3.15 -2.75 -7.10 -6.30 -8.80 -7.80 -1.70 -1.50 -5.25 -4.65 -7.85 -7 -8.55 -7.65 -36.15 -32.30 -39.10 -34.85 -1 -0.90 -1.85 -1.75 -1.85 -1.90 0 -0.15 28.50 -0.25 63.30 -0.25 l63.35 0 4.30 4.15 c29.75 28.55 39.10 37.35 39.80 37.35 0.45 0 4.05 -2.95 14.75 -11.90 1.25 -1.05 17.35 -14.50 35.75 -29.85 45.95 -38.35 75.55 -63.05 78.25 -65.30 1.25 -1.05 4.75 -3.95 7.75 -6.50 3.05 -2.50 13.45 -11.25 23.20 -19.40 9.70 -8.15 19.30 -16.15 21.35 -17.80 2 -1.65 5.20 -4.30 7.10 -5.85 l3.40 -2.85 4.25 -0.25 c2.30 -0.15 9.20 -0.65 15.35 -1.10 6.15 -0.45 11.30 -0.65 11.45 -0.50 0.15 0.15 -1.60 2.35 -3.90 4.90 -2.30 2.55 -5 5.55 -6 6.65 -1 1.10 -9.75 11 -19.50 22 -9.70 11 -18.35 20.80 -19.25 21.75 -0.85 0.95 -7.05 7.95 -13.75 15.50 -6.70 7.60 -19.15 21.65 -27.70 31.25 -8.50 9.65 -18.10 20.40 -21.25 24 -3.15 3.55 -6.45 7.30 -7.30 8.25 -4.50 5 -30.25 34 -32.20 36.25 -2.85 3.30 -39.20 44.40 -45.80 51.75 -0.85 0.95 -7.15 8.05 -13.95 15.75 -6.75 7.70 -13.35 14.90 -14.55 16.05 -3.65 3.30 -9.05 4.50 -13.35 2.95z"/>
 </g>
</svg>